<?xml version="1.0" encoding="utf-8"?>
<!-- Generator: Adobe Illustrator 26.3.1, SVG Export Plug-In . SVG Version: 6.00 Build 0)  -->
<svg version="1.1" id="Layer_1" xmlns="http://www.w3.org/2000/svg" xmlns:xlink="http://www.w3.org/1999/xlink" x="0px" y="0px"
	 viewBox="0 0 1000 1000" style="enable-background:new 0 0 1000 1000;" xml:space="preserve">
<style type="text/css">
	.st0{fill:#CCCCCC;}
	.st1{fill:url(#SVGID_1_);}
	.st2{fill:url(#SVGID_00000181798961536626523080000006292474303598021783_);}
	.st3{fill:#FFFFFF;}
	.st4{fill:#C1272D;}
	.st5{fill:#F15A24;}
	.st6{fill:url(#SVGID_00000078035820889757447130000003197148311886822827_);}
	.st7{fill:none;stroke:#000000;stroke-width:2.209;stroke-miterlimit:10;}
	.st8{fill:none;stroke:#000000;stroke-width:1.4289;stroke-miterlimit:10;}
	.st9{fill:none;stroke:#00FFFF;stroke-width:1.4347;stroke-miterlimit:10;}
	.st10{fill:url(#SVGID_00000095339968874077179610000013395490407576592780_);}
	.st11{fill:url(#SVGID_00000127755707979177090450000017525169910573374376_);}
	.st12{fill:url(#SVGID_00000173847646684937414260000009807901343871691689_);}
	.st13{fill:url(#SVGID_00000025442822429065716220000001656238155402879654_);}
	.st14{fill:url(#SVGID_00000034787258713060935390000012271375737276445313_);}
	.st15{fill:url(#SVGID_00000091711771699594681120000012926711863146973117_);}
	.st16{fill:url(#SVGID_00000049900088359479668290000007770986734986379690_);}
	.st17{fill:url(#SVGID_00000058550443048433446610000015540944466525355183_);}
	.st18{fill:url(#SVGID_00000028318310753109141840000003554456618439975351_);}
	.st19{fill:url(#SVGID_00000008133933994152034790000010988640112191146137_);}
	.st20{fill:url(#SVGID_00000108283801021851212980000016746110320122776236_);}
	.st21{fill:url(#SVGID_00000183225241836319939370000013141573788089243044_);}
	.st22{fill:url(#SVGID_00000004521387015499404840000000534079936380219835_);}
	.st23{fill:url(#SVGID_00000158709318472875923120000008503457895420634257_);}
	.st24{fill:url(#SVGID_00000111187477438104762220000003154129728278748818_);}
	.st25{fill:url(#SVGID_00000064355439526620794280000015227936086479227781_);}
	.st26{fill:url(#SVGID_00000167362505597650500580000004523723132150879620_);}
	.st27{fill:url(#SVGID_00000116922327451453192640000017867505092653222073_);}
	.st28{fill:url(#SVGID_00000087395257348349694680000005037805874949538441_);}
	.st29{fill:url(#SVGID_00000134213869644556067350000006864145800612596359_);}
	.st30{fill:url(#SVGID_00000140008217060286520420000012772115266860742309_);}
	.st31{fill:url(#SVGID_00000140006691092538816970000008481062649365393567_);}
	.st32{fill:url(#SVGID_00000121970212730960692700000004279318167196563643_);}
	.st33{fill:url(#SVGID_00000157304340343523710030000002652060785035881140_);}
	.st34{fill:url(#SVGID_00000057112458743524576380000008257347139961316234_);}
	.st35{fill:url(#SVGID_00000145748838880330958500000002795134446875619469_);}
	.st36{fill:url(#SVGID_00000183240923627833404950000002828377278557254318_);}
	.st37{fill:url(#SVGID_00000066516276711934025990000012638693866121562287_);}
	.st38{fill:url(#SVGID_00000086672534532059243070000003488872611073409696_);}
	.st39{fill:url(#SVGID_00000143618638628468028700000007442371204652097202_);}
	.st40{fill:url(#SVGID_00000070085066511513043910000009454364485437291404_);}
	.st41{fill:url(#SVGID_00000056394192995150645680000009103149652355505833_);}
	.st42{fill:url(#SVGID_00000021824474899649439170000008533985520982121407_);}
	.st43{fill:url(#SVGID_00000134223835216989354980000006470248129329356956_);}
	.st44{fill:url(#SVGID_00000089536424373451827540000012702452478377406396_);}
	.st45{fill:url(#SVGID_00000046331511778803666070000007572814906528578489_);}
	.st46{fill:url(#SVGID_00000124880068645969591390000015631194362464587398_);}
	.st47{fill:url(#SVGID_00000166668281093480089580000009013525802166405307_);}
	.st48{fill:url(#SVGID_00000023270135309066510490000000245056590798738351_);}
	.st49{fill:url(#SVGID_00000176022148797559509070000002591770856698042790_);}
	.st50{fill:url(#SVGID_00000172417725441330908530000010939237257995807633_);}
	.st51{fill:url(#SVGID_00000073683176126453568760000014763417722866538933_);}
	.st52{fill:url(#SVGID_00000170249750561921492930000015441048662144058018_);}
	.st53{fill:url(#SVGID_00000169527127471063244960000002728973603309611156_);}
	.st54{fill:url(#SVGID_00000132075313189647968400000016636244108286833844_);}
	.st55{fill:url(#SVGID_00000160189587686879470930000012903807713423906218_);}
	.st56{fill:url(#SVGID_00000050660091600864741000000002261710907778622121_);}
	.st57{fill:url(#SVGID_00000006710223725195661480000011061418739823001509_);}
	.st58{fill:url(#SVGID_00000006684183952410835140000007316571881030149761_);}
	.st59{fill:url(#SVGID_00000149378456678516351110000002680846290143086526_);}
	.st60{fill:url(#SVGID_00000167386907345822415410000017986354313379659691_);}
	.st61{fill:url(#SVGID_00000169529077054507469920000015690875133507492777_);}
	.st62{fill:url(#SVGID_00000117638833534825799050000015392005098382030471_);}
	.st63{fill:url(#SVGID_00000172403940561842415180000012266802150330412686_);}
	.st64{fill:url(#SVGID_00000180354219335826711480000009415622183129485723_);}
	.st65{fill:url(#SVGID_00000145042989903208717050000011795191611154698890_);}
	.st66{fill:url(#SVGID_00000031906941444618106920000008493702125586952596_);}
	.st67{fill:url(#SVGID_00000182514688882471560000000003598745271992582282_);}
	.st68{fill:url(#SVGID_00000053543646630967366960000014497131383523953847_);}
	.st69{fill:url(#SVGID_00000152950932216442888740000008272150926309986191_);}
	.st70{fill:url(#SVGID_00000096057419280614987770000002572710970319623588_);}
	.st71{fill:url(#SVGID_00000071536642139782800880000007421865042833681837_);}
	.st72{fill:url(#SVGID_00000103975366888043891050000007646851676924089477_);}
	.st73{fill:url(#SVGID_00000080195830007889570040000012833237651138481807_);}
	.st74{fill:url(#SVGID_00000080896109383217206990000004821767343113472393_);}
	.st75{fill:url(#SVGID_00000146462599604874388980000014185024517558847637_);}
	.st76{fill:url(#SVGID_00000008135972940772404340000013056370780703799980_);}
	.st77{fill:url(#SVGID_00000072258551252361823970000014670132400845990560_);}
	.st78{fill:url(#SVGID_00000036222571794676367150000015019775522589909901_);}
	.st79{fill:url(#SVGID_00000131360557672776384860000013961853895848294537_);}
	.st80{fill:url(#SVGID_00000040544801098155195290000012740755280963089849_);}
	.st81{fill:url(#SVGID_00000070834577715245477980000012078873993426064028_);}
	.st82{fill:url(#SVGID_00000114045582924229575190000017582433342739960723_);}
	.st83{fill:#00FFFF;}
	.st84{fill:none;stroke:#000000;stroke-width:2;stroke-miterlimit:10;}
	.st85{fill:url(#SVGID_00000018202931471631768460000018314138774408183198_);}
	.st86{fill:url(#SVGID_00000134222283939930521620000000749242811440850347_);}
	.st87{fill:url(#SVGID_00000171695401174583160490000013404511410002382783_);}
	.st88{fill:url(#SVGID_00000163770006413058299320000002518285362886706311_);}
	.st89{fill:url(#SVGID_00000011012446282971762000000007086286854040523174_);}
	.st90{fill:url(#SVGID_00000000221399986819748570000017658548860285216188_);}
	.st91{fill:url(#SVGID_00000045618919365440436900000007998531016233575579_);}
	.st92{fill:url(#SVGID_00000114047466358646356300000013435619348042649274_);}
	.st93{fill:url(#SVGID_00000045577296712252510400000009636897312144842900_);}
	.st94{fill:url(#SVGID_00000142893968257063579290000009041767122237920446_);}
	.st95{fill:url(#SVGID_00000063616978609700326850000016728854026545447572_);}
	.st96{fill:url(#SVGID_00000159454955150226945060000012736516437297271446_);}
	.st97{fill:url(#SVGID_00000148663308129006948600000005496094618763384487_);}
	.st98{fill:url(#SVGID_00000066498648846267210800000008869962609152916153_);}
	.st99{fill:url(#SVGID_00000162319724039868594370000014762018573663251892_);}
	.st100{fill:url(#SVGID_00000007427692471707015920000010304421504933954957_);}
	.st101{fill:url(#SVGID_00000144296054063381897060000001967047595177604529_);}
	.st102{fill:url(#SVGID_00000047756926608094436210000014883546665572497050_);}
	.st103{fill:url(#SVGID_00000044160903464471563240000018096716597933315006_);}
	.st104{fill:url(#SVGID_00000022550695924640587970000018078156959506473373_);}
	.st105{fill:url(#SVGID_00000165933161013838791740000016357735432400923270_);}
	.st106{fill:url(#SVGID_00000063601063130414410710000011945378456785048489_);}
	.st107{fill:url(#SVGID_00000034057013071528291040000010618127097249637267_);}
	.st108{fill:none;stroke:#000000;stroke-width:3;stroke-miterlimit:10;}
	.st109{fill:#838BC5;}
	.st110{fill:url(#SVGID_00000075151930273106002460000007414282534319544721_);}
	.st111{fill:url(#SVGID_00000129178987385219330080000006119600217809382831_);}
	.st112{fill:url(#SVGID_00000139277137973740368790000012446082275154733981_);}
	.st113{fill:url(#SVGID_00000160883965841713059520000005397367178748314275_);}
	.st114{fill:url(#SVGID_00000141442664968389744360000014701844458008409472_);}
	.st115{fill:url(#SVGID_00000181084464424028418190000000189551841311082127_);}
	.st116{fill:url(#SVGID_00000121267671788989852000000003808116982444386235_);}
	.st117{fill:url(#SVGID_00000033360673478778332800000005435911076869369220_);}
	.st118{fill:url(#SVGID_00000140004679782886877400000013525579001978624131_);}
	.st119{fill:url(#SVGID_00000175291384923346346030000018239611792070592901_);}
	.st120{fill:url(#SVGID_00000013165062361295386560000012960294712832043398_);}
	.st121{fill:url(#SVGID_00000017505447736022216080000013239590200856143260_);}
	.st122{fill:url(#SVGID_00000096055922003284113700000015677603582287104703_);}
	.st123{fill:url(#SVGID_00000127750269370598450560000002078437106038375844_);}
	.st124{fill:url(#SVGID_00000171702249838472240310000017189514286734190494_);}
	.st125{fill:url(#SVGID_00000057108795759566046310000015447642273952631694_);}
	.st126{fill:url(#SVGID_00000158706923458994151580000008800081973789589890_);}
	.st127{fill:url(#SVGID_00000069390035726571312310000011945735201519173524_);}
	.st128{fill:url(#SVGID_00000163758218610899390310000018326202278109040556_);}
	.st129{fill:url(#SVGID_00000068674598754005149920000016009877884944874655_);}
	.st130{fill:url(#SVGID_00000039819064063158701550000015189207025578572184_);}
	.st131{fill:url(#SVGID_00000136411395163790946620000012044588279537833382_);}
	.st132{fill:url(#SVGID_00000068674802161633103380000009336067855719700147_);}
	.st133{fill:url(#SVGID_00000032611491173253396830000017723032023663114935_);}
	.st134{fill:url(#SVGID_00000051365140792642481360000017056910374526810804_);}
	.st135{fill:url(#SVGID_00000105397607790132243050000015908745518752296872_);}
	.st136{fill:url(#SVGID_00000124128050264196475420000016062465381303305368_);}
	.st137{fill:url(#SVGID_00000110451194913052080160000006447194994324261298_);}
	.st138{fill:url(#SVGID_00000060739144541151957120000009503700876286867623_);}
	.st139{fill:url(#SVGID_00000139978003379113450950000003790948070243426462_);}
	.st140{fill:#39B54A;}
	.st141{fill:#999999;}
	.st142{fill:url(#SVGID_00000041263514262764278640000010370263866823846837_);}
	.st143{fill:url(#SVGID_00000036955263434353757080000006038262320115803811_);}
	.st144{fill:url(#SVGID_00000169542615547737800570000002552337653679676581_);}
	.st145{fill:url(#SVGID_00000002364499209862360400000004272530633937366675_);}
	.st146{fill:url(#SVGID_00000116942856421483737370000012340615752501332634_);}
	.st147{fill:url(#SVGID_00000180355248508143225230000006708411751369695921_);}
	.st148{fill:#F7931E;}
	.st149{fill:url(#SVGID_00000173158827424280679600000011513397563274984861_);}
	.st150{fill:url(#SVGID_00000075161065756982585390000008345783879291491497_);}
	.st151{fill:none;stroke:#000000;stroke-width:7;stroke-linecap:square;stroke-miterlimit:10;}
	.st152{fill:none;stroke:#000000;stroke-width:7;stroke-miterlimit:10;}
	.st153{fill:none;stroke:#000000;stroke-width:7;stroke-linecap:round;stroke-linejoin:round;stroke-miterlimit:10;}
	.st154{fill:url(#SVGID_00000167381003517350076030000014050281920604116139_);}
	.st155{fill:url(#SVGID_00000008122014449903355310000006955757997805687708_);}
	.st156{fill:none;stroke:#000000;stroke-width:5;stroke-linecap:square;stroke-miterlimit:10;}
	.st157{fill:none;stroke:#000000;stroke-width:5;stroke-miterlimit:10;}
	.st158{fill:none;stroke:#000000;stroke-width:5;stroke-linecap:round;stroke-linejoin:round;stroke-miterlimit:10;}
	.st159{fill:url(#SVGID_00000023987611023964383720000013151884558768476577_);}
	.st160{fill:url(#SVGID_00000053523980618875843460000017643958318266850951_);}
	.st161{fill:url(#SVGID_00000011717843235910496210000015204363672955488911_);}
	.st162{fill:url(#SVGID_00000177475403838228554860000015987846100904817842_);}
	.st163{fill:url(#SVGID_00000158745713357929501870000011189383190576765316_);}
	.st164{fill:url(#SVGID_00000111901640718764201120000006155329585490267271_);}
	.st165{fill:url(#SVGID_00000067194177347225281250000012350238531598320524_);}
	.st166{fill:url(#SVGID_00000119103669351403407960000006207324236368484027_);}
	.st167{fill:url(#SVGID_00000172425016992296929610000005912071975567227528_);}
</style>
<g>
	<g>
		<path d="M500.4,762.26c-12.03,0-23.78-3.39-33.96-9.8l-81.37-51.24l8.02-1.96c19.17-4.69,37.66-11.94,54.97-21.55
			c18.42-10.2,35.11-22.8,49.6-37.45l2.47-2.49l2.49,2.47c14.77,14.68,31.57,27.19,49.93,37.19c17.51,9.57,36.05,16.71,55.1,21.24
			l8.04,1.91l-81,51.68C524.42,758.8,512.57,762.26,500.4,762.26z M402.6,703.98l67.57,42.55c9.06,5.71,19.52,8.73,30.23,8.73
			c10.83,0,21.38-3.08,30.52-8.91l67.24-42.9c-16.89-4.67-33.33-11.34-48.97-19.89c-17.91-9.75-34.39-21.83-49.02-35.93
			c-14.38,14.08-30.75,26.25-48.72,36.19C435.97,692.42,419.58,699.18,402.6,703.98z"/>
		<path d="M809.24,342.94l-5.79-5.37c-12.7-11.78-26.84-21.97-42.01-30.26c-15.31-8.37-31.51-14.77-48.14-19.02l-7.67-1.96
			l80.87-53.2c2.54-1.67,5.46-2.56,8.43-2.56l0,0c0,0,0,0,0,0c4.1,0,8.13,1.69,11.03,4.63c2.89,2.92,4.45,6.82,4.4,10.97
			L809.24,342.94z M722.55,283.58c14.56,4.3,28.74,10.21,42.25,17.59c13.41,7.33,26.03,16.09,37.62,26.09l0.94-81.16
			c0.03-2.91-1.27-4.85-2.38-5.97c-1.6-1.62-3.81-2.55-6.06-2.55h0c-1.63,0-3.17,0.47-4.59,1.4L722.55,283.58z"/>
		<path d="M622.01,697.53c-0.2,0-0.4-0.02-0.6-0.05c-22.4-3.88-43.96-11.43-64.08-22.43c-20.05-10.96-38.04-25.06-53.48-41.89
			c-0.59-0.64-0.92-1.48-0.92-2.36l-0.43-209.65c0-1.19,0.6-2.29,1.59-2.94l195.54-127.39c0.79-0.51,1.75-0.69,2.67-0.48
			c22.39,4.98,39.26,10.97,54.72,19.42c14.96,8.18,29.85,19.85,46.86,36.74c0.67,0.67,1.05,1.58,1.03,2.53l-2.04,174.58
			c-0.43,37.29-19.45,71.53-50.88,91.59L623.9,696.98C623.33,697.34,622.68,697.53,622.01,697.53z M509.94,629.42
			c14.7,15.83,31.77,29.11,50.76,39.49c19.05,10.42,39.43,17.62,60.59,21.44l126.96-81.06c29.43-18.79,47.25-50.86,47.65-85.78
			l2.02-173.1c-16.09-15.85-30.18-26.84-44.24-34.52c-14.52-7.94-30.44-13.64-51.45-18.4l-192.7,125.55L509.94,629.42z"/>
		<path d="M191.08,344.52l-1.69-94.83c-0.08-4.46,1.57-8.64,4.66-11.78c3.11-3.16,7.41-4.98,11.81-4.98l0,0c0,0,0,0,0,0
			c3.14,0,6.22,0.92,8.91,2.67l79.54,51.62l-7.63,2.02c-16.75,4.44-32.91,10.94-48.03,19.32c-15.26,8.46-29.32,18.73-41.81,30.52
			L191.08,344.52z M205.85,239.94c-2.53,0-5.02,1.05-6.82,2.88c-1.24,1.27-2.71,3.46-2.65,6.75l1.41,79.19
			c11.42-10.01,23.99-18.84,37.46-26.31c13.36-7.41,27.51-13.4,42.16-17.85l-66.45-43.12C209.38,240.46,207.66,239.94,205.85,239.94
			C205.86,239.94,205.86,239.94,205.85,239.94L205.85,239.94z"/>
		<path d="M379.16,695.64c-0.66,0-1.3-0.18-1.86-0.54l-135.07-85.05c-26.32-16.57-42.37-45.04-42.92-76.14l-3.27-183.9
			c-0.02-0.95,0.36-1.87,1.03-2.54c13.46-13.39,28.72-24.86,45.37-34.09c16.65-9.23,34.46-16.11,52.94-20.45
			c0.93-0.22,1.9-0.05,2.7,0.47l194.38,126.12c0.99,0.64,1.59,1.74,1.59,2.92l0.87,207.4c0,0.88-0.32,1.73-0.92,2.38
			c-14.93,16.34-32.41,30.13-51.95,40.97c-19.54,10.84-40.49,18.38-62.26,22.39C379.58,695.62,379.37,695.64,379.16,695.64z
			 M203.05,351.39l3.25,182.4c0.51,28.73,15.33,55.03,39.65,70.34l133.91,84.32c20.54-3.94,40.32-11.13,58.79-21.38
			c18.48-10.25,35.04-23.22,49.26-38.57l-0.86-204.13L295.52,300.09c-17.34,4.2-34.05,10.73-49.7,19.41
			C230.18,328.18,215.8,338.9,203.05,351.39z"/>
	</g>
	<g>
		<linearGradient id="SVGID_1_" gradientUnits="userSpaceOnUse" x1="499.875" y1="762.2576" x2="499.875" y2="230.5716">
			<stop  offset="0" style="stop-color:#8E4DFF"/>
			<stop  offset="7.138491e-03" style="stop-color:#8D4EFF"/>
			<stop  offset="0.496" style="stop-color:#42ADFF"/>
			<stop  offset="0.8375" style="stop-color:#12E8FF"/>
			<stop  offset="1" style="stop-color:#00FFFF"/>
		</linearGradient>
		<path class="st1" d="M500.4,762.26c-12.03,0-23.78-3.39-33.96-9.8l-81.37-51.24l8.02-1.96c19.17-4.69,37.66-11.94,54.97-21.55
			c18.42-10.2,35.11-22.8,49.6-37.45l2.47-2.49l2.49,2.47c14.77,14.68,31.57,27.19,49.93,37.19c17.51,9.57,36.05,16.71,55.1,21.24
			l8.04,1.91l-81,51.68C524.42,758.8,512.57,762.26,500.4,762.26z M402.6,703.98l67.57,42.55c9.06,5.71,19.52,8.73,30.23,8.73
			c10.83,0,21.38-3.08,30.52-8.91l67.24-42.9c-16.89-4.67-33.33-11.34-48.97-19.89c-17.91-9.75-34.39-21.83-49.02-35.93
			c-14.38,14.08-30.75,26.25-48.72,36.19C435.97,692.42,419.58,699.18,402.6,703.98z"/>
		
			<linearGradient id="SVGID_00000072999538081150244060000015982571746905111172_" gradientUnits="userSpaceOnUse" x1="499.875" y1="762.2576" x2="499.875" y2="230.5716">
			<stop  offset="0" style="stop-color:#8E4DFF"/>
			<stop  offset="7.138491e-03" style="stop-color:#8D4EFF"/>
			<stop  offset="0.496" style="stop-color:#42ADFF"/>
			<stop  offset="0.8375" style="stop-color:#12E8FF"/>
			<stop  offset="1" style="stop-color:#00FFFF"/>
		</linearGradient>
		<path style="fill:url(#SVGID_00000072999538081150244060000015982571746905111172_);" d="M809.24,342.94l-5.79-5.37
			c-12.7-11.78-26.84-21.97-42.01-30.26c-15.31-8.37-31.51-14.77-48.14-19.02l-7.67-1.96l80.87-53.2c2.54-1.67,5.46-2.56,8.43-2.56
			l0,0c0,0,0,0,0,0c4.1,0,8.13,1.69,11.03,4.63c2.89,2.92,4.45,6.82,4.4,10.97L809.24,342.94z M722.55,283.58
			c14.56,4.3,28.74,10.21,42.25,17.59c13.41,7.33,26.03,16.09,37.62,26.09l0.94-81.16c0.03-2.91-1.27-4.85-2.38-5.97
			c-1.6-1.62-3.81-2.55-6.06-2.55h0c-1.63,0-3.17,0.47-4.59,1.4L722.55,283.58z"/>
		
			<linearGradient id="SVGID_00000179611916681001692680000004061303145358079361_" gradientUnits="userSpaceOnUse" x1="499.875" y1="762.2576" x2="499.875" y2="230.5716">
			<stop  offset="0" style="stop-color:#8E4DFF"/>
			<stop  offset="7.138491e-03" style="stop-color:#8D4EFF"/>
			<stop  offset="0.496" style="stop-color:#42ADFF"/>
			<stop  offset="0.8375" style="stop-color:#12E8FF"/>
			<stop  offset="1" style="stop-color:#00FFFF"/>
		</linearGradient>
		<path style="fill:url(#SVGID_00000179611916681001692680000004061303145358079361_);" d="M622.01,697.53c-0.2,0-0.4-0.02-0.6-0.05
			c-22.4-3.88-43.96-11.43-64.08-22.43c-20.05-10.96-38.04-25.06-53.48-41.89c-0.59-0.64-0.92-1.48-0.92-2.36l-0.43-209.65
			c0-1.19,0.6-2.29,1.59-2.94l195.54-127.39c0.79-0.51,1.75-0.69,2.67-0.48c22.39,4.98,39.26,10.97,54.72,19.42
			c14.96,8.18,29.85,19.85,46.86,36.74c0.67,0.67,1.05,1.58,1.03,2.53l-2.04,174.58c-0.43,37.29-19.45,71.53-50.88,91.59
			L623.9,696.98C623.33,697.34,622.68,697.53,622.01,697.53z M509.94,629.42c14.7,15.83,31.77,29.11,50.76,39.49
			c19.05,10.42,39.43,17.62,60.59,21.44l126.96-81.06c29.43-18.79,47.25-50.86,47.65-85.78l2.02-173.1
			c-16.09-15.85-30.18-26.84-44.24-34.52c-14.52-7.94-30.44-13.64-51.45-18.4l-192.7,125.55L509.94,629.42z"/>
		
			<linearGradient id="SVGID_00000021827037941175631810000001880290048352551297_" gradientUnits="userSpaceOnUse" x1="499.875" y1="762.2576" x2="499.875" y2="230.5716">
			<stop  offset="0" style="stop-color:#8E4DFF"/>
			<stop  offset="7.138491e-03" style="stop-color:#8D4EFF"/>
			<stop  offset="0.496" style="stop-color:#42ADFF"/>
			<stop  offset="0.8375" style="stop-color:#12E8FF"/>
			<stop  offset="1" style="stop-color:#00FFFF"/>
		</linearGradient>
		<path style="fill:url(#SVGID_00000021827037941175631810000001880290048352551297_);" d="M191.08,344.52l-1.69-94.83
			c-0.08-4.46,1.57-8.64,4.66-11.78c3.11-3.16,7.41-4.98,11.81-4.98l0,0c0,0,0,0,0,0c3.14,0,6.22,0.92,8.91,2.67l79.54,51.62
			l-7.63,2.02c-16.75,4.44-32.91,10.94-48.03,19.32c-15.26,8.46-29.32,18.73-41.81,30.52L191.08,344.52z M205.85,239.94
			c-2.53,0-5.02,1.05-6.82,2.88c-1.24,1.27-2.71,3.46-2.65,6.75l1.41,79.19c11.42-10.01,23.99-18.84,37.46-26.31
			c13.36-7.41,27.51-13.4,42.16-17.85l-66.45-43.12C209.38,240.46,207.66,239.94,205.85,239.94
			C205.86,239.94,205.86,239.94,205.85,239.94L205.85,239.94z"/>
		
			<linearGradient id="SVGID_00000010275425208973399860000003937827913129170068_" gradientUnits="userSpaceOnUse" x1="499.875" y1="762.2576" x2="499.875" y2="230.5716">
			<stop  offset="0" style="stop-color:#8E4DFF"/>
			<stop  offset="7.138491e-03" style="stop-color:#8D4EFF"/>
			<stop  offset="0.496" style="stop-color:#42ADFF"/>
			<stop  offset="0.8375" style="stop-color:#12E8FF"/>
			<stop  offset="1" style="stop-color:#00FFFF"/>
		</linearGradient>
		<path style="fill:url(#SVGID_00000010275425208973399860000003937827913129170068_);" d="M379.16,695.64
			c-0.66,0-1.3-0.18-1.86-0.54l-135.07-85.05c-26.32-16.57-42.37-45.04-42.92-76.14l-3.27-183.9c-0.02-0.95,0.36-1.87,1.03-2.54
			c13.46-13.39,28.72-24.86,45.37-34.09c16.65-9.23,34.46-16.11,52.94-20.45c0.93-0.22,1.9-0.05,2.7,0.47l194.38,126.12
			c0.99,0.64,1.59,1.74,1.59,2.92l0.87,207.4c0,0.88-0.32,1.73-0.92,2.38c-14.93,16.34-32.41,30.13-51.95,40.97
			c-19.54,10.84-40.49,18.38-62.26,22.39C379.58,695.62,379.37,695.64,379.16,695.64z M203.05,351.39l3.25,182.4
			c0.51,28.73,15.33,55.03,39.65,70.34l133.91,84.32c20.54-3.94,40.32-11.13,58.79-21.38c18.48-10.25,35.04-23.22,49.26-38.57
			l-0.86-204.13L295.52,300.09c-17.34,4.2-34.05,10.73-49.7,19.41C230.18,328.18,215.8,338.9,203.05,351.39z"/>
	</g>
</g>
<linearGradient id="SVGID_00000172440623392775341400000004844264067501645969_" gradientUnits="userSpaceOnUse" x1="346.7185" y1="550.4134" x2="346.7185" y2="449.5838">
	<stop  offset="0" style="stop-color:#8E4DFF"/>
	<stop  offset="7.138491e-03" style="stop-color:#8D4EFF"/>
	<stop  offset="0.496" style="stop-color:#42ADFF"/>
	<stop  offset="0.8375" style="stop-color:#12E8FF"/>
	<stop  offset="1" style="stop-color:#00FFFF"/>
</linearGradient>
<path style="fill:url(#SVGID_00000172440623392775341400000004844264067501645969_);" d="M360.7,449.58l35.83,100.83h-27.51
	l-6.05-18.59h-32.95l-5.9,18.59h-27.21l35.98-100.83H360.7z M346.79,476.19l-11.04,34.62h21.92L346.79,476.19z"/>
<linearGradient id="SVGID_00000128481569678139378740000017247042331756645041_" gradientUnits="userSpaceOnUse" x1="651.4138" y1="550.4148" x2="651.4138" y2="449.5852">
	<stop  offset="0" style="stop-color:#8E4DFF"/>
	<stop  offset="7.138491e-03" style="stop-color:#8D4EFF"/>
	<stop  offset="0.496" style="stop-color:#42ADFF"/>
	<stop  offset="0.8375" style="stop-color:#12E8FF"/>
	<stop  offset="1" style="stop-color:#00FFFF"/>
</linearGradient>
<path style="fill:url(#SVGID_00000128481569678139378740000017247042331756645041_);" d="M664.19,449.59v100.83h-25.55V449.59
	H664.19z"/>
</svg>
